<mxfile host="Electron" agent="Mozilla/5.0 (Windows NT 10.0; Win64; x64) AppleWebKit/537.36 (KHTML, like Gecko) draw.io/24.7.8 Chrome/128.0.6613.36 Electron/32.0.1 Safari/537.36" version="24.7.8">
  <diagram name="Page-1" id="Bpdf8saWwIOwq694duLC">
    <mxGraphModel dx="1098" dy="1180" grid="1" gridSize="10" guides="1" tooltips="1" connect="1" arrows="1" fold="1" page="1" pageScale="1" pageWidth="850" pageHeight="1100" math="0" shadow="0">
      <root>
        <mxCell id="0" />
        <mxCell id="1" parent="0" />
        <mxCell id="TA7Gz13gH2-N_yUS3Cio-7" style="edgeStyle=orthogonalEdgeStyle;rounded=0;orthogonalLoop=1;jettySize=auto;html=1;exitX=1;exitY=0.5;exitDx=0;exitDy=0;" edge="1" parent="1" source="u9CiLmh_53HlYg_y4VyR-5" target="TA7Gz13gH2-N_yUS3Cio-1">
          <mxGeometry relative="1" as="geometry" />
        </mxCell>
        <mxCell id="u9CiLmh_53HlYg_y4VyR-5" value="Spring&lt;div style=&quot;font-size: 14px;&quot;&gt;Security&lt;/div&gt;&lt;div style=&quot;font-size: 14px;&quot;&gt;Filters&lt;/div&gt;" style="rounded=0;whiteSpace=wrap;html=1;fillColor=#d5e8d4;strokeColor=#82b366;fontStyle=1;fontSize=14;" parent="1" vertex="1">
          <mxGeometry x="80" y="110" width="72.5" height="500" as="geometry" />
        </mxCell>
        <mxCell id="TA7Gz13gH2-N_yUS3Cio-4" value="&amp;nbsp;Yes&amp;nbsp;" style="edgeStyle=orthogonalEdgeStyle;rounded=0;orthogonalLoop=1;jettySize=auto;html=1;entryX=0;entryY=0.5;entryDx=0;entryDy=0;" edge="1" parent="1" source="TA7Gz13gH2-N_yUS3Cio-1" target="TA7Gz13gH2-N_yUS3Cio-2">
          <mxGeometry x="-0.0435" relative="1" as="geometry">
            <Array as="points">
              <mxPoint x="490" y="360" />
              <mxPoint x="490" y="360" />
            </Array>
            <mxPoint as="offset" />
          </mxGeometry>
        </mxCell>
        <mxCell id="TA7Gz13gH2-N_yUS3Cio-1" value="Is Web Resource Protected?" style="rhombus;whiteSpace=wrap;html=1;fillColor=#ffe6cc;strokeColor=#d79b00;" vertex="1" parent="1">
          <mxGeometry x="240" y="290" width="140" height="140" as="geometry" />
        </mxCell>
        <mxCell id="TA7Gz13gH2-N_yUS3Cio-5" value="&amp;nbsp;Yes&amp;nbsp;" style="edgeStyle=orthogonalEdgeStyle;rounded=0;orthogonalLoop=1;jettySize=auto;html=1;entryX=0;entryY=0.5;entryDx=0;entryDy=0;" edge="1" parent="1" source="TA7Gz13gH2-N_yUS3Cio-2" target="TA7Gz13gH2-N_yUS3Cio-3">
          <mxGeometry relative="1" as="geometry" />
        </mxCell>
        <mxCell id="TA7Gz13gH2-N_yUS3Cio-13" style="edgeStyle=orthogonalEdgeStyle;rounded=0;orthogonalLoop=1;jettySize=auto;html=1;entryX=0.5;entryY=0;entryDx=0;entryDy=0;" edge="1" parent="1" source="TA7Gz13gH2-N_yUS3Cio-2" target="TA7Gz13gH2-N_yUS3Cio-12">
          <mxGeometry relative="1" as="geometry" />
        </mxCell>
        <mxCell id="TA7Gz13gH2-N_yUS3Cio-2" value="Is user authenticated?" style="rhombus;whiteSpace=wrap;html=1;fillColor=#ffe6cc;strokeColor=#d79b00;" vertex="1" parent="1">
          <mxGeometry x="610" y="290" width="140" height="140" as="geometry" />
        </mxCell>
        <mxCell id="TA7Gz13gH2-N_yUS3Cio-10" value="No" style="edgeStyle=orthogonalEdgeStyle;rounded=0;orthogonalLoop=1;jettySize=auto;html=1;entryX=0.5;entryY=1;entryDx=0;entryDy=0;" edge="1" parent="1" source="TA7Gz13gH2-N_yUS3Cio-3" target="TA7Gz13gH2-N_yUS3Cio-9">
          <mxGeometry relative="1" as="geometry" />
        </mxCell>
        <mxCell id="TA7Gz13gH2-N_yUS3Cio-11" value="Yes" style="edgeStyle=orthogonalEdgeStyle;rounded=0;orthogonalLoop=1;jettySize=auto;html=1;entryX=0.5;entryY=0;entryDx=0;entryDy=0;" edge="1" parent="1" source="TA7Gz13gH2-N_yUS3Cio-3" target="TA7Gz13gH2-N_yUS3Cio-8">
          <mxGeometry relative="1" as="geometry" />
        </mxCell>
        <mxCell id="TA7Gz13gH2-N_yUS3Cio-3" value="Is user authorized?" style="rhombus;whiteSpace=wrap;html=1;fillColor=#ffe6cc;strokeColor=#d79b00;" vertex="1" parent="1">
          <mxGeometry x="840" y="290" width="140" height="140" as="geometry" />
        </mxCell>
        <mxCell id="TA7Gz13gH2-N_yUS3Cio-8" value="Show Resource" style="rounded=0;whiteSpace=wrap;html=1;fillColor=#d5e8d4;strokeColor=#82b366;" vertex="1" parent="1">
          <mxGeometry x="850" y="580" width="120" height="60" as="geometry" />
        </mxCell>
        <mxCell id="TA7Gz13gH2-N_yUS3Cio-9" value="Access Denied" style="rounded=0;whiteSpace=wrap;html=1;fillColor=#f8cecc;strokeColor=#b85450;" vertex="1" parent="1">
          <mxGeometry x="850" y="80" width="120" height="60" as="geometry" />
        </mxCell>
        <mxCell id="TA7Gz13gH2-N_yUS3Cio-15" style="edgeStyle=orthogonalEdgeStyle;rounded=0;orthogonalLoop=1;jettySize=auto;html=1;" edge="1" parent="1" source="TA7Gz13gH2-N_yUS3Cio-12" target="TA7Gz13gH2-N_yUS3Cio-14">
          <mxGeometry relative="1" as="geometry" />
        </mxCell>
        <mxCell id="TA7Gz13gH2-N_yUS3Cio-12" value="Send to Login Form" style="rounded=0;whiteSpace=wrap;html=1;fillColor=#dae8fc;strokeColor=#6c8ebf;" vertex="1" parent="1">
          <mxGeometry x="620" y="580" width="120" height="60" as="geometry" />
        </mxCell>
        <mxCell id="TA7Gz13gH2-N_yUS3Cio-17" style="edgeStyle=orthogonalEdgeStyle;rounded=0;orthogonalLoop=1;jettySize=auto;html=1;" edge="1" parent="1" source="TA7Gz13gH2-N_yUS3Cio-14" target="TA7Gz13gH2-N_yUS3Cio-16">
          <mxGeometry relative="1" as="geometry" />
        </mxCell>
        <mxCell id="TA7Gz13gH2-N_yUS3Cio-14" value="Show Login Form" style="rounded=0;whiteSpace=wrap;html=1;fillColor=#d5e8d4;strokeColor=#82b366;" vertex="1" parent="1">
          <mxGeometry x="430" y="580" width="120" height="60" as="geometry" />
        </mxCell>
        <mxCell id="TA7Gz13gH2-N_yUS3Cio-19" style="edgeStyle=orthogonalEdgeStyle;rounded=0;orthogonalLoop=1;jettySize=auto;html=1;" edge="1" parent="1" source="TA7Gz13gH2-N_yUS3Cio-16">
          <mxGeometry relative="1" as="geometry">
            <mxPoint x="490" y="370" as="targetPoint" />
          </mxGeometry>
        </mxCell>
        <mxCell id="TA7Gz13gH2-N_yUS3Cio-16" value="Authenticate with user and password" style="rounded=0;whiteSpace=wrap;html=1;fillColor=#d5e8d4;strokeColor=#82b366;" vertex="1" parent="1">
          <mxGeometry x="430" y="450" width="120" height="60" as="geometry" />
        </mxCell>
      </root>
    </mxGraphModel>
  </diagram>
</mxfile>
